<?xml version="1.0" encoding="UTF-8" standalone="no"?>
<svg
   width="561.56769"
   zoomAndPan="magnify"
   viewBox="0 0 421.17577 229.5"
   height="306"
   preserveAspectRatio="xMidYMid"
   version="1.0"
   id="svg4"
   xmlns="http://www.w3.org/2000/svg"
   xmlns:svg="http://www.w3.org/2000/svg">
  <defs
     id="defs2">
    <clipPath
       id="364077f10c">
      <path
         d="m 194,290.23437 h 179.14062 v 229.5 H 194 Z m 0,0"
         clip-rule="nonzero"
         id="path1" />
    </clipPath>
    <clipPath
       id="1515a52e1a">
      <path
         d="M 378.26562,290.23437 H 616 v 229.5 H 378.26562 Z m 0,0"
         clip-rule="nonzero"
         id="path2" />
    </clipPath>
  </defs>
  <g
     clip-path="url(#364077f10c)"
     id="g3"
     transform="translate(-194.12109,-290.23438)">
    <path
       fill="#00e08f"
       d="m 366.27734,433.67187 c 0,-47.53125 -38.53906,-86.0625 -86.07812,-86.0625 h -86.07813 v 86.0625 c 0,47.52735 38.53907,86.0625 86.07813,86.0625 h 86.07812 z m 249.05469,-143.4375 v 114.75 c 0,63.375 -51.38281,114.75 -114.76953,114.75 H 385.78906 v -114.75 c 0,-63.375 51.38672,-114.75 114.77344,-114.75 z m 0,0"
       fill-opacity="1"
       fill-rule="nonzero"
       id="path3" />
  </g>
  <g
     clip-path="url(#1515a52e1a)"
     id="g4"
     transform="translate(-194.12109,-290.23438)">
    <path
       fill="#0077ff"
       d="m 366.26562,433.68359 c 0,-47.53515 -38.53515,-86.07031 -86.07421,-86.07031 h -86.07032 v 86.07031 c 0,47.53516 38.53516,86.07422 86.07032,86.07422 h 86.07421 z M 615.29687,290.23437 v 114.76172 c 0,63.37891 -51.3789,114.76172 -114.76171,114.76172 H 385.77344 V 404.99609 c 0,-63.38281 51.38281,-114.76172 114.76172,-114.76172 z m 0,0"
       fill-opacity="1"
       fill-rule="nonzero"
       id="path4" />
  </g>
</svg>
